<mxfile host="app.diagrams.net" modified="2023-05-08T15:46:42.221Z" agent="Mozilla/5.0 (Windows NT 10.0; Win64; x64) AppleWebKit/537.36 (KHTML, like Gecko) Chrome/113.0.0.0 Safari/537.36 Edg/113.0.1774.35" etag="5oURw2WCAeODMelOZx-C" version="21.2.9" type="github">
  <diagram name="第 1 页" id="sUbpygW02dXcx57cD-o5">
    <mxGraphModel dx="1206" dy="663" grid="0" gridSize="10" guides="1" tooltips="1" connect="1" arrows="1" fold="1" page="1" pageScale="1" pageWidth="827" pageHeight="1169" math="0" shadow="0">
      <root>
        <mxCell id="0" />
        <mxCell id="1" parent="0" />
        <mxCell id="De2wVuAOBL9Eksb5gAzh-2" value="" style="shape=table;startSize=0;container=1;collapsible=0;childLayout=tableLayout;fillColor=#d5e8d4;strokeColor=#82b366;sketch=1;curveFitting=1;jiggle=2;" vertex="1" parent="1">
          <mxGeometry x="190" y="160" width="150" height="230" as="geometry" />
        </mxCell>
        <mxCell id="De2wVuAOBL9Eksb5gAzh-3" value="" style="shape=tableRow;horizontal=0;startSize=0;swimlaneHead=0;swimlaneBody=0;strokeColor=inherit;top=0;left=0;bottom=0;right=0;collapsible=0;dropTarget=0;fillColor=none;points=[[0,0.5],[1,0.5]];portConstraint=eastwest;fontSize=32;" vertex="1" parent="De2wVuAOBL9Eksb5gAzh-2">
          <mxGeometry width="150" height="58" as="geometry" />
        </mxCell>
        <mxCell id="De2wVuAOBL9Eksb5gAzh-4" value="&lt;font style=&quot;font-size: 35px;&quot;&gt;len&lt;/font&gt;" style="shape=partialRectangle;html=1;whiteSpace=wrap;connectable=0;strokeColor=inherit;overflow=hidden;fillColor=none;top=0;left=0;bottom=0;right=0;pointerEvents=1;" vertex="1" parent="De2wVuAOBL9Eksb5gAzh-3">
          <mxGeometry width="150" height="58" as="geometry">
            <mxRectangle width="150" height="58" as="alternateBounds" />
          </mxGeometry>
        </mxCell>
        <mxCell id="De2wVuAOBL9Eksb5gAzh-5" value="" style="shape=tableRow;horizontal=0;startSize=0;swimlaneHead=0;swimlaneBody=0;strokeColor=inherit;top=0;left=0;bottom=0;right=0;collapsible=0;dropTarget=0;fillColor=none;points=[[0,0.5],[1,0.5]];portConstraint=eastwest;" vertex="1" parent="De2wVuAOBL9Eksb5gAzh-2">
          <mxGeometry y="58" width="150" height="57" as="geometry" />
        </mxCell>
        <mxCell id="De2wVuAOBL9Eksb5gAzh-6" value="&lt;font style=&quot;font-size: 32px;&quot;&gt;alloc&lt;/font&gt;" style="shape=partialRectangle;html=1;whiteSpace=wrap;connectable=0;strokeColor=inherit;overflow=hidden;fillColor=none;top=0;left=0;bottom=0;right=0;pointerEvents=1;" vertex="1" parent="De2wVuAOBL9Eksb5gAzh-5">
          <mxGeometry width="150" height="57" as="geometry">
            <mxRectangle width="150" height="57" as="alternateBounds" />
          </mxGeometry>
        </mxCell>
        <mxCell id="De2wVuAOBL9Eksb5gAzh-7" value="" style="shape=tableRow;horizontal=0;startSize=0;swimlaneHead=0;swimlaneBody=0;strokeColor=inherit;top=0;left=0;bottom=0;right=0;collapsible=0;dropTarget=0;fillColor=none;points=[[0,0.5],[1,0.5]];portConstraint=eastwest;" vertex="1" parent="De2wVuAOBL9Eksb5gAzh-2">
          <mxGeometry y="115" width="150" height="58" as="geometry" />
        </mxCell>
        <mxCell id="De2wVuAOBL9Eksb5gAzh-8" value="flags" style="shape=partialRectangle;html=1;whiteSpace=wrap;connectable=0;strokeColor=inherit;overflow=hidden;fillColor=none;top=0;left=0;bottom=0;right=0;pointerEvents=1;fontSize=32;" vertex="1" parent="De2wVuAOBL9Eksb5gAzh-7">
          <mxGeometry width="150" height="58" as="geometry">
            <mxRectangle width="150" height="58" as="alternateBounds" />
          </mxGeometry>
        </mxCell>
        <mxCell id="De2wVuAOBL9Eksb5gAzh-9" value="" style="shape=tableRow;horizontal=0;startSize=0;swimlaneHead=0;swimlaneBody=0;strokeColor=inherit;top=0;left=0;bottom=0;right=0;collapsible=0;dropTarget=0;fillColor=none;points=[[0,0.5],[1,0.5]];portConstraint=eastwest;" vertex="1" parent="De2wVuAOBL9Eksb5gAzh-2">
          <mxGeometry y="173" width="150" height="57" as="geometry" />
        </mxCell>
        <mxCell id="De2wVuAOBL9Eksb5gAzh-10" value="buf[]" style="shape=partialRectangle;html=1;whiteSpace=wrap;connectable=0;strokeColor=inherit;overflow=hidden;fillColor=none;top=0;left=0;bottom=0;right=0;pointerEvents=1;fontSize=32;" vertex="1" parent="De2wVuAOBL9Eksb5gAzh-9">
          <mxGeometry width="150" height="57" as="geometry">
            <mxRectangle width="150" height="57" as="alternateBounds" />
          </mxGeometry>
        </mxCell>
        <mxCell id="De2wVuAOBL9Eksb5gAzh-11" value="&lt;font style=&quot;font-size: 18px;&quot;&gt;字符数组的长度&lt;/font&gt;" style="text;html=1;strokeColor=none;fillColor=none;align=center;verticalAlign=middle;whiteSpace=wrap;rounded=0;" vertex="1" parent="1">
          <mxGeometry x="319" y="170" width="190" height="50" as="geometry" />
        </mxCell>
        <mxCell id="De2wVuAOBL9Eksb5gAzh-12" value="&lt;font style=&quot;font-size: 18px;&quot;&gt;字符数组的分配空间长度&lt;/font&gt;" style="text;html=1;strokeColor=none;fillColor=none;align=center;verticalAlign=middle;whiteSpace=wrap;rounded=0;" vertex="1" parent="1">
          <mxGeometry x="319" y="230" width="261" height="50" as="geometry" />
        </mxCell>
        <mxCell id="De2wVuAOBL9Eksb5gAzh-13" value="&lt;font style=&quot;font-size: 18px;&quot;&gt;SDS类型&lt;/font&gt;" style="text;html=1;strokeColor=none;fillColor=none;align=center;verticalAlign=middle;whiteSpace=wrap;rounded=0;" vertex="1" parent="1">
          <mxGeometry x="300" y="280" width="190" height="50" as="geometry" />
        </mxCell>
        <mxCell id="De2wVuAOBL9Eksb5gAzh-14" value="&lt;font style=&quot;font-size: 18px;&quot;&gt;字符数组&lt;/font&gt;" style="text;html=1;strokeColor=none;fillColor=none;align=center;verticalAlign=middle;whiteSpace=wrap;rounded=0;" vertex="1" parent="1">
          <mxGeometry x="300" y="340" width="190" height="50" as="geometry" />
        </mxCell>
        <mxCell id="De2wVuAOBL9Eksb5gAzh-15" value="&lt;font size=&quot;1&quot; style=&quot;&quot;&gt;&lt;b style=&quot;font-size: 30px;&quot;&gt;SDS数据结构&lt;/b&gt;&lt;/font&gt;" style="text;html=1;strokeColor=none;fillColor=none;align=center;verticalAlign=middle;whiteSpace=wrap;rounded=0;" vertex="1" parent="1">
          <mxGeometry x="248" y="82" width="190" height="50" as="geometry" />
        </mxCell>
        <mxCell id="De2wVuAOBL9Eksb5gAzh-19" value="" style="edgeStyle=orthogonalEdgeStyle;rounded=0;orthogonalLoop=1;jettySize=auto;html=1;sketch=1;curveFitting=1;jiggle=2;fillColor=#d5e8d4;strokeColor=#82b366;" edge="1" parent="1" source="De2wVuAOBL9Eksb5gAzh-17" target="De2wVuAOBL9Eksb5gAzh-18">
          <mxGeometry relative="1" as="geometry" />
        </mxCell>
        <mxCell id="De2wVuAOBL9Eksb5gAzh-17" value="&lt;font style=&quot;font-size: 14px;&quot;&gt;获取目前字符串对的当前长度&lt;/font&gt;" style="rounded=1;whiteSpace=wrap;html=1;absoluteArcSize=1;arcSize=14;strokeWidth=2;fontSize=14;sketch=1;curveFitting=1;jiggle=2;fillColor=#d5e8d4;strokeColor=#82b366;" vertex="1" parent="1">
          <mxGeometry x="278" y="464" width="195" height="59" as="geometry" />
        </mxCell>
        <mxCell id="De2wVuAOBL9Eksb5gAzh-21" value="" style="edgeStyle=orthogonalEdgeStyle;rounded=0;orthogonalLoop=1;jettySize=auto;html=1;sketch=1;curveFitting=1;jiggle=2;fillColor=#d5e8d4;strokeColor=#82b366;" edge="1" parent="1" source="De2wVuAOBL9Eksb5gAzh-18" target="De2wVuAOBL9Eksb5gAzh-20">
          <mxGeometry relative="1" as="geometry" />
        </mxCell>
        <mxCell id="De2wVuAOBL9Eksb5gAzh-23" value="" style="edgeStyle=orthogonalEdgeStyle;rounded=0;orthogonalLoop=1;jettySize=auto;html=1;sketch=1;curveFitting=1;jiggle=2;fillColor=#d5e8d4;strokeColor=#82b366;" edge="1" parent="1" source="De2wVuAOBL9Eksb5gAzh-18" target="De2wVuAOBL9Eksb5gAzh-22">
          <mxGeometry relative="1" as="geometry" />
        </mxCell>
        <mxCell id="De2wVuAOBL9Eksb5gAzh-18" value="目标字符串空间&lt;br&gt;是否足够" style="rhombus;whiteSpace=wrap;html=1;fontSize=14;rounded=1;arcSize=14;strokeWidth=2;sketch=1;curveFitting=1;jiggle=2;fillColor=#d5e8d4;strokeColor=#82b366;" vertex="1" parent="1">
          <mxGeometry x="292.25" y="565" width="166.5" height="75" as="geometry" />
        </mxCell>
        <mxCell id="De2wVuAOBL9Eksb5gAzh-20" value="为目标字符串申请新空间" style="whiteSpace=wrap;html=1;fontSize=14;rounded=1;arcSize=14;strokeWidth=2;sketch=1;curveFitting=1;jiggle=2;fillColor=#d5e8d4;strokeColor=#82b366;" vertex="1" parent="1">
          <mxGeometry x="522" y="573.75" width="165" height="57.5" as="geometry" />
        </mxCell>
        <mxCell id="De2wVuAOBL9Eksb5gAzh-25" value="" style="edgeStyle=orthogonalEdgeStyle;rounded=0;orthogonalLoop=1;jettySize=auto;html=1;sketch=1;curveFitting=1;jiggle=2;fillColor=#d5e8d4;strokeColor=#82b366;" edge="1" parent="1" source="De2wVuAOBL9Eksb5gAzh-22" target="De2wVuAOBL9Eksb5gAzh-24">
          <mxGeometry relative="1" as="geometry" />
        </mxCell>
        <mxCell id="De2wVuAOBL9Eksb5gAzh-22" value="拷贝源字符串至目标字符串" style="whiteSpace=wrap;html=1;fontSize=14;rounded=1;arcSize=14;strokeWidth=2;sketch=1;curveFitting=1;jiggle=2;fillColor=#d5e8d4;strokeColor=#82b366;" vertex="1" parent="1">
          <mxGeometry x="288.25" y="694" width="174.5" height="50.5" as="geometry" />
        </mxCell>
        <mxCell id="De2wVuAOBL9Eksb5gAzh-24" value="设置目标字符串的最新长度" style="whiteSpace=wrap;html=1;fontSize=14;rounded=1;arcSize=14;strokeWidth=2;sketch=1;curveFitting=1;jiggle=2;fillColor=#d5e8d4;strokeColor=#82b366;" vertex="1" parent="1">
          <mxGeometry x="288.25" y="790" width="174.5" height="50.5" as="geometry" />
        </mxCell>
        <mxCell id="De2wVuAOBL9Eksb5gAzh-30" value="否" style="text;html=1;strokeColor=none;fillColor=none;align=center;verticalAlign=middle;whiteSpace=wrap;rounded=0;" vertex="1" parent="1">
          <mxGeometry x="455" y="570" width="60" height="30" as="geometry" />
        </mxCell>
        <mxCell id="De2wVuAOBL9Eksb5gAzh-31" value="是" style="text;html=1;strokeColor=none;fillColor=none;align=center;verticalAlign=middle;whiteSpace=wrap;rounded=0;" vertex="1" parent="1">
          <mxGeometry x="360" y="648" width="60" height="30" as="geometry" />
        </mxCell>
      </root>
    </mxGraphModel>
  </diagram>
</mxfile>
